# xmcd
#
# Track frame offsets:
#	150
#	9429
#	24190
#	36588
#	47472
#	57819
#	69054
#	79485
#	92653
#	109199
#	120485
#	130021
#	142564
#	151216
#	164186
#	171173
#	182133
#	189430
#	196560
#	204339
#	216647
#	227159
#	235684
#	245196
#	257902
#	268335
#	276468
#	282023
#	290517
#	301947
#	315362
#	323850
#
# Disc length: 4380 seconds
#
# Revision: 1
# Processed by: cddbd v1.5.2PL0 Copyright (c) Steve Scherf et al.
# Submitted via: audiograbber 1.83.01
#
DISCID=c7111a20
DTITLE=Mac Wiseman - On Susan's Floor [1965-1979] CD1
DYEAR=2006
DGENRE=Country
TTITLE0=Maple Sugar Sweetheart
TTITLE1=Bringing Mary Home
TTITLE2=Legend Of The Irish Rebel
TTITLE3=The Ghost Of Bras D'or
TTITLE4=Prince Edward Island Is Heaven To Me
TTITLE5=What A Waste Of Good Cornlikker
TTITLE6=My Nova Scotia Home
TTITLE7=When Its Apple Blossom Time In Annapolis Valley
TTITLE8=My Molly Bawn
TTITLE9=Atlantic Lullaby
TTITLE10=My Cape Breton Home
TTITLE11=Pistol Packin' Preacher
TTITLE12=Wreck Of The Old 97
TTITLE13=Little Mohee
TTITLE14=Corinna, Corinna
TTITLE15=Sittin' On Top Of The World
TTITLE16=How Many Biscuits Can You Eat
TTITLE17=Ring Those Golden Bells
TTITLE18=I Saw Your Face In The Moon
TTITLE19=I'll Be All Smiles Tonight
TTITLE20=The Waltz You Saved For Me
TTITLE21=Just Over In The Gloryland
TTITLE22=My Grandfather's Clock
TTITLE23=Little Blossom
TTITLE24=There's More Pretty Girls Than One
TTITLE25=Rovin' Gambler
TTITLE26=Sourwood Mountain
TTITLE27=Midnight Special
TTITLE28=Mary Of The Wildmoor
TTITLE29=The Black Sheep
TTITLE30=Bringing In The Georgia Mail
TTITLE31=Turkey In The Straw
EXTD=
EXTT0=
EXTT1=
EXTT2=
EXTT3=
EXTT4=
EXTT5=
EXTT6=
EXTT7=
EXTT8=
EXTT9=
EXTT10=
EXTT11=
EXTT12=
EXTT13=
EXTT14=
EXTT15=
EXTT16=
EXTT17=
EXTT18=
EXTT19=
EXTT20=
EXTT21=
EXTT22=
EXTT23=
EXTT24=
EXTT25=
EXTT26=
EXTT27=
EXTT28=
EXTT29=
EXTT30=
EXTT31=
PLAYORDER=
